{
	"asset":{
		"version":"2.0",
		"generator":"Created using the official Cinema 4D glTF Exporter 1.000x284978"
	},
	"scenes":[{
		"nodes":[0,
		1,
		2,
		3]
	}],
	"nodes":[{
		"name":"Тор.3",
		"translation":[2.143540382385254,
		-0.5933571457862854,
		-1.7765425443649293],
		"rotation":[0.43187519907951357,
		-0.08493131399154663,
		0.8623047471046448,
		0.25040173530578616],
		"scale":[1.0,
		1.0,
		1.0],
		"mesh":0
	},
	{
		"name":"Тор.1",
		"translation":[2.1496615409851076,
		-0.6615741848945618,
		-1.8192641735076905],
		"rotation":[0.9278772473335266,
		-0.1264435350894928,
		0.028271177783608438,
		0.34965208172798159],
		"scale":[1.0,
		1.0,
		1.0],
		"mesh":1
	},
	{
		"name":"Тор",
		"translation":[2.1496615409851076,
		-0.6615741848945618,
		-1.8192641735076905],
		"rotation":[0.15623751282691956,
		0.07802670449018479,
		0.15623751282691956,
		0.9721581935882568],
		"scale":[1.0,
		1.0,
		1.0],
		"mesh":2
	},
	{
		"name":"Сфера",
		"mesh":3
	}],
	"meshes":[{
		"name":"Тор.3",
		"primitives":[{
			"attributes":{
				"POSITION":1,
				"NORMAL":2,
				"TEXCOORD_0":3
			},
			"indices":0
		}]
	},
	{
		"name":"Тор.1",
		"primitives":[{
			"attributes":{
				"POSITION":5,
				"NORMAL":6,
				"TEXCOORD_0":7
			},
			"indices":4
		}]
	},
	{
		"name":"Тор",
		"primitives":[{
			"attributes":{
				"POSITION":9,
				"NORMAL":10,
				"TEXCOORD_0":11
			},
			"indices":8
		}]
	},
	{
		"name":"Сфера",
		"primitives":[{
			"attributes":{
				"POSITION":13,
				"NORMAL":14,
				"TEXCOORD_0":15
			},
			"indices":12
		}]
	}],
	"accessors":[{
		"min":[0],
		"bufferView":0,
		"type":"SCALAR",
		"componentType":5123,
		"count":9384,
		"byteOffset":0,
		"max":[1688]
	},
	{
		"min":[-15.19954776763916,
		-0.19696155190467835,
		-15.199788093566895],
		"bufferView":1,
		"type":"VEC3",
		"componentType":5126,
		"count":1689,
		"byteOffset":0,
		"max":[8.49973201751709,
		0.19696155190467835,
		3.677212715148926]
	},
	{
		"min":[-0.9999702572822571,
		-0.9932985901832581,
		-0.9999861121177673],
		"bufferView":1,
		"type":"VEC3",
		"componentType":5126,
		"count":1689,
		"byteOffset":12,
		"max":[0.9999701976776123,
		0.9932985901832581,
		0.9999860525131226]
	},
	{
		"min":[0.0,
		0.0],
		"bufferView":1,
		"type":"VEC2",
		"componentType":5126,
		"count":1689,
		"byteOffset":24,
		"max":[1.0,
		1.0]
	},
	{
		"min":[0],
		"bufferView":2,
		"type":"SCALAR",
		"componentType":5123,
		"count":61584,
		"byteOffset":0,
		"max":[10588]
	},
	{
		"min":[-13.366910934448243,
		-0.1999291181564331,
		-17.199920654296876],
		"bufferView":3,
		"type":"VEC3",
		"componentType":5126,
		"count":10589,
		"byteOffset":0,
		"max":[17.200000762939454,
		0.1999291181564331,
		0.0]
	},
	{
		"min":[-0.9998580813407898,
		-0.9998425245285034,
		-0.9999954104423523],
		"bufferView":3,
		"type":"VEC3",
		"componentType":5126,
		"count":10589,
		"byteOffset":12,
		"max":[0.999858021736145,
		0.9998425245285034,
		1.0]
	},
	{
		"min":[0.0,
		0.0],
		"bufferView":3,
		"type":"VEC2",
		"componentType":5126,
		"count":10589,
		"byteOffset":24,
		"max":[1.0,
		1.0]
	},
	{
		"min":[0],
		"bufferView":4,
		"type":"SCALAR",
		"componentType":5123,
		"count":9288,
		"byteOffset":0,
		"max":[1652]
	},
	{
		"min":[-15.199999809265137,
		-0.19696155190467835,
		-15.189859390258789],
		"bufferView":5,
		"type":"VEC3",
		"componentType":5126,
		"count":1653,
		"byteOffset":0,
		"max":[15.199999809265137,
		0.19696155190467835,
		15.189859390258789]
	},
	{
		"min":[-1.0,
		-0.9848069548606873,
		-0.9993329048156738],
		"bufferView":5,
		"type":"VEC3",
		"componentType":5126,
		"count":1653,
		"byteOffset":12,
		"max":[1.0,
		0.9848069548606873,
		0.9993329048156738]
	},
	{
		"min":[0.0,
		0.0],
		"bufferView":5,
		"type":"VEC2",
		"componentType":5126,
		"count":1653,
		"byteOffset":24,
		"max":[1.0,
		1.0]
	},
	{
		"min":[0],
		"bufferView":6,
		"type":"SCALAR",
		"componentType":5123,
		"count":29400,
		"byteOffset":0,
		"max":[5148]
	},
	{
		"min":[-10.0,
		-10.0,
		-10.0],
		"bufferView":7,
		"type":"VEC3",
		"componentType":5126,
		"count":5149,
		"byteOffset":0,
		"max":[10.0,
		10.0,
		10.0]
	},
	{
		"min":[-1.0,
		-1.0,
		-1.0],
		"bufferView":7,
		"type":"VEC3",
		"componentType":5126,
		"count":5149,
		"byteOffset":12,
		"max":[1.0,
		1.0,
		1.0]
	},
	{
		"min":[0.0,
		0.0],
		"bufferView":7,
		"type":"VEC2",
		"componentType":5126,
		"count":5149,
		"byteOffset":24,
		"max":[1.0,
		1.0]
	}],
	"bufferViews":[{
		"buffer":0,
		"target":34963,
		"byteOffset":0,
		"byteLength":18768
	},
	{
		"byteStride":32,
		"buffer":0,
		"target":34962,
		"byteOffset":18768,
		"byteLength":54048
	},
	{
		"buffer":1,
		"target":34963,
		"byteOffset":0,
		"byteLength":123168
	},
	{
		"byteStride":32,
		"buffer":1,
		"target":34962,
		"byteOffset":123168,
		"byteLength":338848
	},
	{
		"buffer":2,
		"target":34963,
		"byteOffset":0,
		"byteLength":18576
	},
	{
		"byteStride":32,
		"buffer":2,
		"target":34962,
		"byteOffset":18576,
		"byteLength":52896
	},
	{
		"buffer":3,
		"target":34963,
		"byteOffset":0,
		"byteLength":58800
	},
	{
		"byteStride":32,
		"buffer":3,
		"target":34962,
		"byteOffset":58800,
		"byteLength":164768
	}],
	"buffers":[{
		"uri":"data:application/octet-stream;base64,",
		"byteLength":72816
	},
	{
		"uri":"data:application/octet-stream;base64,",
		"byteLength":462016
	},
	{
		"uri":"data:application/octet-stream;base64,",
		"byteLength":71472
	},
	{
		"uri":"data:application/octet-stream;base64,",
		"byteLength":223568
	}]
}